<svg width="16" height="21" fill="none" xmlns="http://www.w3.org/2000/svg"><path d="M.708 4.25A4.167 4.167 0 0 1 4.875.083h6.25a4.167 4.167 0 0 1 2.756 7.292 4.167 4.167 0 0 1-4.84 6.734v2.64a4.166 4.166 0 1 1-6.923-3.124 4.166 4.166 0 0 1 0-6.25A4.167 4.167 0 0 1 .708 4.25zm6.25 4.167H4.875a2.083 2.083 0 0 0 0 4.166h2.083V8.417zM9.041 10.5a2.083 2.083 0 1 0 4.167 0 2.083 2.083 0 0 0-4.167 0zm2.084-4.167a2.083 2.083 0 0 0 0-4.166H9.04v4.166h2.084zm-6.25-4.166a2.083 2.083 0 1 0 0 4.166h2.083V2.167H4.875zm2.083 12.5H4.875a2.083 2.083 0 1 0 2.083 2.083v-2.083z" fill="#fff"/></svg>