<svg width="262" height="100" fill="none" xmlns="http://www.w3.org/2000/svg"><circle cx="1.088" cy="93.222" r="1" fill="#282944"/><circle cx="1.088" cy="84.222" r="1" fill="#282944"/><circle cx="9.088" cy="84.222" r="1" fill="#282944"/><circle cx="9.088" cy="93.222" r="1" fill="#D586E2"/><circle cx="1.088" cy="76.222" r="1" fill="#282944"/><circle cx="10.088" cy="67.222" r="1" fill="#282944"/><circle cx="27.088" cy="75.222" r="1" fill="#282944"/><circle cx="36.088" cy="67.222" r="1" fill="#D586E2"/><circle cx="44.088" cy="59.222" r="1" fill="#282944"/><circle cx="54.088" cy="48.222" r="1" fill="#282944"/><circle cx="62.088" cy="40.222" r="1" fill="#282944"/><circle cx="62.088" cy="23.222" r="1" fill="#282944"/><circle cx="54.088" cy="23.222" r="1" fill="#282944"/><circle cx="72.088" cy="49.222" r="1" fill="#282944"/><circle cx="70.088" cy="59.222" r="1" fill="#282944"/><circle cx="71.088" cy="68.222" r="1" fill="#282944"/><circle cx="62.088" cy="76.222" r="1" fill="#282944"/><circle cx="71.088" cy="85.222" r="1" fill="#D586E2"/><circle cx="53.088" cy="67.222" r="1" fill="#282944"/><circle cx="53.088" cy="76.222" r="1" fill="#282944"/><circle cx="53.088" cy="85.222" r="1" fill="#282944"/><circle cx="27.088" cy="93.222" r="1" fill="#282944"/><circle cx="226.088" cy="1.222" r="1" fill="#282944"/><circle cx="233.088" cy="1.222" r="1" fill="#282944"/><circle cx="240.088" cy="15.222" r="1" fill="#282944"/><circle cx="226.088" cy="29.222" r="1" fill="#282944"/><circle cx="233.088" cy="29.222" r="1" fill="#282944"/><circle cx="240.088" cy="29.222" r="1" fill="#FDD19A"/><circle cx="219.088" cy="36.222" r="1" fill="#282944"/><circle cx="233.088" cy="36.222" r="1" fill="#282944"/><circle cx="143.088" cy="43.222" r="1" fill="#282944"/><circle cx="177.088" cy="43.222" r="1" fill="#FDD19A"/><circle cx="240.088" cy="44.222" r="1" fill="#282944"/><circle cx="157.088" cy="50.222" r="1" fill="#282944"/><circle cx="170.088" cy="50.222" r="1" fill="#282944"/><circle cx="177.088" cy="50.222" r="1" fill="#282944"/><circle cx="191.088" cy="50.222" r="1" fill="#282944"/><circle cx="233.088" cy="50.222" r="1" fill="#282944"/><circle cx="240.088" cy="50.222" r="1" fill="#FDD19A"/><circle cx="253.088" cy="50.222" r="1" fill="#282944"/><circle cx="143.088" cy="51.222" r="1" fill="#282944"/><circle cx="205.088" cy="56.222" r="1" fill="#282944"/><circle cx="157.088" cy="57.222" r="1" fill="#282944"/><circle cx="164.088" cy="57.222" r="1" fill="#282944"/><circle cx="169.088" cy="57.222" r="1" fill="#282944"/><circle cx="191.088" cy="57.222" r="1" fill="#282944"/><circle cx="199.088" cy="57.222" r="1" fill="#282944"/><circle cx="233.088" cy="57.222" r="1" fill="#282944"/><circle cx="260.088" cy="57.222" r="1" fill="#FDD19A"/><circle cx="253.088" cy="58.222" r="1" fill="#282944"/><circle cx="149.088" cy="63.222" r="1" fill="#282944"/><circle cx="233.088" cy="63.222" r="1" fill="#282944"/><circle cx="171.088" cy="64.222" r="1" fill="#282944"/><circle cx="184.088" cy="64.222" r="1" fill="#282944"/><circle cx="247.088" cy="64.222" r="1" fill="#282944"/><circle cx="163.088" cy="70.222" r="1" fill="#282944"/><circle cx="247.088" cy="70.222" r="1" fill="#282944"/><circle cx="184.088" cy="71.222" r="1" fill="#282944"/><circle cx="198.088" cy="71.222" r="1" fill="#282944"/><circle cx="205.088" cy="71.222" r="1" fill="#282944"/><circle cx="213.088" cy="71.222" r="1" fill="#282944"/><circle cx="198.088" cy="77.222" r="1" fill="#282944"/><circle cx="232.088" cy="77.222" r="1" fill="#282944"/><circle cx="170.088" cy="78.222" r="1" fill="#282944"/><circle cx="192.088" cy="78.222" r="1" fill="#282944"/><circle cx="204.088" cy="78.222" r="1" fill="#FDD19A"/><circle cx="212.088" cy="78.222" r="1" fill="#282944"/><circle cx="254.088" cy="78.222" r="1" fill="#FDD19A"/><circle cx="190.088" cy="84.222" r="1" fill="#282944"/><circle cx="198.088" cy="84.222" r="1" fill="#282944"/><circle cx="253.088" cy="84.222" r="1" fill="#282944"/><circle cx="212.088" cy="85.222" r="1" fill="#282944"/><circle cx="184.088" cy="91.222" r="1" fill="#282944"/><circle cx="247.088" cy="91.222" r="1" fill="#FDD19A"/><circle cx="226.088" cy="98.222" r="1" fill="#282944"/></svg>