<svg width="262" height="100" viewBox="0 0 262 100" fill="none" xmlns="http://www.w3.org/2000/svg">
<circle cx="1.08789" cy="93.2217" r="1" fill="#282944"/>
<circle cx="1.08789" cy="84.2217" r="1" fill="#282944"/>
<circle cx="9.08789" cy="84.2217" r="1" fill="#282944"/>
<circle cx="9.08789" cy="93.2217" r="1" fill="#282944"/>
<circle cx="1.08789" cy="76.2217" r="1" fill="#282944"/>
<circle cx="10.0879" cy="67.2217" r="1" fill="#282944"/>
<circle cx="27.0879" cy="75.2217" r="1" fill="#282944"/>
<circle cx="36.0879" cy="67.2217" r="1" fill="#282944"/>
<circle cx="44.0879" cy="59.2217" r="1" fill="#282944"/>
<circle cx="54.0879" cy="48.2217" r="1" fill="#282944"/>
<circle cx="62.0879" cy="40.2217" r="1" fill="#282944"/>
<circle cx="62.0879" cy="23.2217" r="1" fill="#282944"/>
<circle cx="54.0879" cy="23.2217" r="1" fill="#282944"/>
<circle cx="72.0879" cy="49.2217" r="1" fill="#282944"/>
<circle cx="70.0879" cy="59.2217" r="1" fill="#282944"/>
<circle cx="71.0879" cy="68.2217" r="1" fill="#282944"/>
<circle cx="62.0879" cy="76.2217" r="1" fill="#282944"/>
<circle cx="71.0879" cy="85.2217" r="1" fill="#D586E2"/>
<circle cx="53.0879" cy="67.2217" r="1" fill="#BC8EF5"/>
<circle cx="53.0879" cy="76.2217" r="1" fill="#282944"/>
<circle cx="53.0879" cy="85.2217" r="1" fill="#282944"/>
<circle cx="27.0879" cy="93.2217" r="1" fill="#A57CE9"/>
<circle cx="226.088" cy="1.22168" r="1" fill="#282944"/>
<circle cx="233.088" cy="1.22168" r="1" fill="#282944"/>
<circle cx="240.088" cy="15.2217" r="1" fill="#282944"/>
<circle cx="226.088" cy="29.2217" r="1" fill="#282944"/>
<circle cx="233.088" cy="29.2217" r="1" fill="#282944"/>
<circle cx="240.088" cy="29.2217" r="1" fill="#282944"/>
<circle cx="219.088" cy="36.2217" r="1" fill="#282944"/>
<circle cx="233.088" cy="36.2217" r="1" fill="#282944"/>
<circle cx="143.088" cy="43.2217" r="1" fill="#282944"/>
<circle cx="177.088" cy="43.2217" r="1" fill="#282944"/>
<circle cx="240.088" cy="44.2217" r="1" fill="#282944"/>
<circle cx="157.088" cy="50.2217" r="1" fill="#282944"/>
<circle cx="170.088" cy="50.2217" r="1" fill="#282944"/>
<circle cx="177.088" cy="50.2217" r="1" fill="#282944"/>
<circle cx="191.088" cy="50.2217" r="1" fill="#282944"/>
<circle cx="233.088" cy="50.2217" r="1" fill="#282944"/>
<circle cx="240.088" cy="50.2217" r="1" fill="#282944"/>
<circle cx="253.088" cy="50.2217" r="1" fill="#282944"/>
<circle cx="143.088" cy="51.2217" r="1" fill="#282944"/>
<circle cx="205.088" cy="56.2217" r="1" fill="#282944"/>
<circle cx="157.088" cy="57.2217" r="1" fill="#282944"/>
<circle cx="164.088" cy="57.2217" r="1" fill="#282944"/>
<circle cx="169.088" cy="57.2217" r="1" fill="#282944"/>
<circle cx="191.088" cy="57.2217" r="1" fill="#282944"/>
<circle cx="199.088" cy="57.2217" r="1" fill="#282944"/>
<circle cx="233.088" cy="57.2217" r="1" fill="#282944"/>
<circle cx="260.088" cy="57.2217" r="1" fill="#FBDFB2"/>
<circle cx="253.088" cy="58.2217" r="1" fill="#282944"/>
<circle cx="149.088" cy="63.2217" r="1" fill="#282944"/>
<circle cx="233.088" cy="63.2217" r="1" fill="#282944"/>
<circle cx="171.088" cy="64.2217" r="1" fill="#282944"/>
<circle cx="184.088" cy="64.2217" r="1" fill="#282944"/>
<circle cx="247.088" cy="64.2217" r="1" fill="#282944"/>
<circle cx="163.088" cy="70.2217" r="1" fill="#282944"/>
<circle cx="247.088" cy="70.2217" r="1" fill="#282944"/>
<circle cx="184.088" cy="71.2217" r="1" fill="#282944"/>
<circle cx="198.088" cy="71.2217" r="1" fill="#282944"/>
<circle cx="205.088" cy="71.2217" r="1" fill="#FFC17C"/>
<circle cx="213.088" cy="71.2217" r="1" fill="#282944"/>
<circle cx="198.088" cy="77.2217" r="1" fill="#282944"/>
<circle cx="232.088" cy="77.2217" r="1" fill="#282944"/>
<circle cx="170.088" cy="78.2217" r="1" fill="#282944"/>
<circle cx="192.088" cy="78.2217" r="1" fill="#282944"/>
<circle cx="204.088" cy="78.2217" r="1" fill="#282944"/>
<circle cx="212.088" cy="78.2217" r="1" fill="#282944"/>
<circle cx="254.088" cy="78.2217" r="1" fill="#FBDFB2"/>
<circle cx="190.088" cy="84.2217" r="1" fill="#282944"/>
<circle cx="198.088" cy="84.2217" r="1" fill="#282944"/>
<circle cx="253.088" cy="84.2217" r="1" fill="#FBDFB2"/>
<circle cx="212.088" cy="85.2217" r="1" fill="#282944"/>
<circle cx="184.088" cy="91.2217" r="1" fill="#282944"/>
<circle cx="247.088" cy="91.2217" r="1" fill="#282944"/>
<circle cx="226.088" cy="98.2217" r="1" fill="#FDD19A"/>
</svg>
