<svg width="87" height="129" fill="none" xmlns="http://www.w3.org/2000/svg"><circle cx="1.692" cy="5.582" r="1" transform="rotate(59.714 1.692 5.582)" fill="#BC8EF5"/><circle cx="13.867" cy="127.82" r="1" transform="rotate(-5.557 13.867 127.82)" fill="#282944"/><circle cx="5.726" cy="12.49" r="1" transform="rotate(59.714 5.726 12.49)" fill="#282944"/><circle cx="21.829" cy="127.045" r="1" transform="rotate(-5.557 21.83 127.045)" fill="#282944"/><circle cx="8.6" cy="1.548" r="1" transform="rotate(59.714 8.6 1.548)" fill="#BC8EF5"/><circle cx="13.093" cy="119.858" r="1" transform="rotate(-5.557 13.093 119.858)" fill="#282944"/><circle cx="20.91" cy="4.781" r="1" transform="rotate(59.714 20.91 4.78)" fill="#BC8EF5"/><circle cx="21.179" cy="110.028" r="1" transform="rotate(-5.557 21.179 110.028)" fill="#282944"/><circle cx="22.576" cy="23.495" r="1" transform="rotate(59.714 22.576 23.495)" fill="#282944"/><circle cx="38.874" cy="116.345" r="1" transform="rotate(-5.557 38.874 116.345)" fill="#282944"/><circle cx="34.023" cy="27.232" r="1" transform="rotate(59.714 34.023 27.232)" fill="#282944"/><circle cx="47.056" cy="107.511" r="1" transform="rotate(-5.557 47.056 107.511)" fill="#282944"/><circle cx="44.965" cy="30.106" r="1" transform="rotate(59.714 44.965 30.106)" fill="#282944"/><circle cx="54.245" cy="98.774" r="1" transform="rotate(-5.557 54.245 98.774)" fill="#282944"/><circle cx="59.507" cy="33.194" r="1" transform="rotate(59.714 59.507 33.194)" fill="#282944"/><circle cx="63.132" cy="86.857" r="1" transform="rotate(-5.557 63.132 86.857)" fill="#282944"/><circle cx="70.45" cy="36.067" r="1" transform="rotate(59.714 70.45 36.067)" fill="#282944"/><circle cx="70.32" cy="78.12" r="1" transform="rotate(-5.557 70.32 78.12)" fill="#282944"/><circle cx="85.13" cy="27.494" r="1" transform="rotate(59.714 85.13 27.494)" fill="#282944"/><circle cx="68.674" cy="61.2" r="1" transform="rotate(-5.557 68.674 61.2)" fill="#282944"/><circle cx="81.095" cy="20.586" r="1" transform="rotate(59.714 81.095 20.586)" fill="#282944"/><circle cx="60.712" cy="61.975" r="1" transform="rotate(-5.557 60.712 61.975)" fill="#282944"/><circle cx="67.721" cy="49.241" r="1" transform="rotate(59.714 67.721 49.241)" fill="#BC8EF5"/><circle cx="81.144" cy="86.109" r="1" transform="rotate(-5.557 81.144 86.11)" fill="#BC8EF5"/><circle cx="58.077" cy="52.557" r="1" transform="rotate(59.714 58.077 52.557)" fill="#282944"/><circle cx="80.122" cy="96.256" r="1" transform="rotate(-5.557 80.122 96.256)" fill="#282944"/><circle cx="50.81" cy="57.96" r="1" transform="rotate(59.714 50.81 57.96)" fill="#282944"/><circle cx="81.989" cy="105.117" r="1" transform="rotate(-5.557 81.99 105.117)" fill="#282944"/><circle cx="39.363" cy="54.223" r="1" transform="rotate(59.714 39.363 54.223)" fill="#282944"/><circle cx="73.806" cy="113.951" r="1" transform="rotate(-5.557 73.806 113.951)" fill="#282944"/><circle cx="36.13" cy="66.533" r="1" transform="rotate(59.714 36.13 66.533)" fill="#282944"/><circle cx="83.635" cy="122.037" r="1" transform="rotate(-5.557 83.635 122.037)" fill="#282944"/><circle cx="42.596" cy="41.912" r="1" transform="rotate(59.714 42.596 41.912)" fill="#282944"/><circle cx="63.976" cy="105.865" r="1" transform="rotate(-5.557 63.976 105.865)" fill="#282944"/><circle cx="34.824" cy="46.451" r="1" transform="rotate(59.714 34.824 46.45)" fill="#282944"/><circle cx="64.849" cy="114.822" r="1" transform="rotate(-5.557 64.849 114.822)" fill="#282944"/><circle cx="27.052" cy="50.99" r="1" transform="rotate(59.714 27.052 50.99)" fill="#282944"/><circle cx="65.72" cy="123.78" r="1" transform="rotate(-5.557 65.72 123.78)" fill="#282944"/></svg>