<svg width="87" height="130" fill="none" xmlns="http://www.w3.org/2000/svg"><circle cx="1.692" cy="6.118" r="1" transform="rotate(59.714 1.692 6.118)" fill="#282944"/><circle cx="13.867" cy="128.355" r="1" transform="rotate(-5.557 13.867 128.355)" fill="#282944"/><circle cx="5.726" cy="13.026" r="1" transform="rotate(59.714 5.726 13.026)" fill="#282944"/><circle cx="21.829" cy="127.581" r="1" transform="rotate(-5.557 21.83 127.581)" fill="#282944"/><circle cx="8.6" cy="2.083" r="1" transform="rotate(59.714 8.6 2.083)" fill="#282944"/><circle cx="13.093" cy="120.393" r="1" transform="rotate(-5.557 13.093 120.393)" fill="#282944"/><circle cx="20.91" cy="5.316" r="1" transform="rotate(59.714 20.91 5.316)" fill="#282944"/><circle cx="21.179" cy="110.564" r="1" transform="rotate(-5.557 21.179 110.564)" fill="#282944"/><circle cx="22.576" cy="24.031" r="1" transform="rotate(59.714 22.576 24.03)" fill="#282944"/><circle cx="38.874" cy="116.88" r="1" transform="rotate(-5.557 38.874 116.88)" fill="#282944"/><circle cx="34.023" cy="27.768" r="1" transform="rotate(59.714 34.023 27.768)" fill="#282944"/><circle cx="47.056" cy="108.046" r="1" transform="rotate(-5.557 47.056 108.046)" fill="#282944"/><circle cx="44.965" cy="30.642" r="1" transform="rotate(59.714 44.965 30.642)" fill="#282944"/><circle cx="54.245" cy="99.309" r="1" transform="rotate(-5.557 54.245 99.31)" fill="#282944"/><circle cx="59.507" cy="33.729" r="1" transform="rotate(59.714 59.507 33.73)" fill="#282944"/><circle cx="63.132" cy="87.393" r="1" transform="rotate(-5.557 63.132 87.393)" fill="#282944"/><circle cx="70.45" cy="36.603" r="1" transform="rotate(59.714 70.45 36.603)" fill="#282944"/><circle cx="70.32" cy="78.656" r="1" transform="rotate(-5.557 70.32 78.656)" fill="#282944"/><circle cx="85.13" cy="28.03" r="1" transform="rotate(59.714 85.13 28.03)" fill="#282944"/><circle cx="68.674" cy="61.736" r="1" transform="rotate(-5.557 68.674 61.736)" fill="#282944"/><circle cx="81.095" cy="21.122" r="1" transform="rotate(59.714 81.095 21.122)" fill="#282944"/><circle cx="60.712" cy="62.51" r="1" transform="rotate(-5.557 60.712 62.51)" fill="#282944"/><circle cx="67.721" cy="49.777" r="1" transform="rotate(59.714 67.721 49.777)" fill="#282944"/><circle cx="81.144" cy="86.645" r="1" transform="rotate(-5.557 81.144 86.645)" fill="#282944"/><circle cx="58.077" cy="53.093" r="1" transform="rotate(59.714 58.077 53.093)" fill="#282944"/><circle cx="80.122" cy="96.792" r="1" transform="rotate(-5.557 80.122 96.792)" fill="#282944"/><circle cx="50.81" cy="58.495" r="1" transform="rotate(59.714 50.81 58.495)" fill="#282944"/><circle cx="81.989" cy="105.653" r="1" transform="rotate(-5.557 81.99 105.653)" fill="#282944"/><circle cx="39.363" cy="54.758" r="1" transform="rotate(59.714 39.363 54.758)" fill="#282944"/><circle cx="73.806" cy="114.487" r="1" transform="rotate(-5.557 73.806 114.487)" fill="#282944"/><circle cx="36.13" cy="67.069" r="1" transform="rotate(59.714 36.13 67.069)" fill="#D586E2"/><circle cx="83.635" cy="122.573" r="1" transform="rotate(-5.557 83.635 122.573)" fill="#D586E2"/><circle cx="42.596" cy="42.448" r="1" transform="rotate(59.714 42.596 42.448)" fill="#BC8EF5"/><circle cx="63.976" cy="106.4" r="1" transform="rotate(-5.557 63.976 106.4)" fill="#BC8EF5"/><circle cx="34.824" cy="46.986" r="1" transform="rotate(59.714 34.824 46.986)" fill="#282944"/><circle cx="64.849" cy="115.358" r="1" transform="rotate(-5.557 64.849 115.358)" fill="#282944"/><circle cx="27.052" cy="51.525" r="1" transform="rotate(59.714 27.052 51.525)" fill="#282944"/><circle cx="65.72" cy="124.316" r="1" transform="rotate(-5.557 65.72 124.316)" fill="#282944"/></svg>