<svg width="87" height="130" viewBox="0 0 87 130" fill="none" xmlns="http://www.w3.org/2000/svg">
<circle cx="1.69206" cy="6.11783" r="1" transform="rotate(59.7143 1.69206 6.11783)" fill="#282944"/>
<circle cx="13.867" cy="128.355" r="1" transform="rotate(-5.55676 13.867 128.355)" fill="#282944"/>
<circle cx="5.72624" cy="13.026" r="1" transform="rotate(59.7143 5.72624 13.026)" fill="#282944"/>
<circle cx="21.8294" cy="127.581" r="1" transform="rotate(-5.55676 21.8294 127.581)" fill="#282944"/>
<circle cx="8.59977" cy="2.08341" r="1" transform="rotate(59.7143 8.59977 2.08341)" fill="#282944"/>
<circle cx="13.0926" cy="120.393" r="1" transform="rotate(-5.55676 13.0926 120.393)" fill="#282944"/>
<circle cx="20.9103" cy="5.31632" r="1" transform="rotate(59.7143 20.9103 5.31632)" fill="#282944"/>
<circle cx="21.179" cy="110.564" r="1" transform="rotate(-5.55676 21.179 110.564)" fill="#282944"/>
<circle cx="22.5758" cy="24.0307" r="1" transform="rotate(59.7143 22.5758 24.0307)" fill="#282944"/>
<circle cx="38.8739" cy="116.88" r="1" transform="rotate(-5.55676 38.8739 116.88)" fill="#282944"/>
<circle cx="34.0226" cy="27.7677" r="1" transform="rotate(59.7143 34.0226 27.7677)" fill="#282944"/>
<circle cx="47.0565" cy="108.046" r="1" transform="rotate(-5.55676 47.0565 108.046)" fill="#282944"/>
<circle cx="44.9655" cy="30.6415" r="1" transform="rotate(59.7143 44.9655 30.6415)" fill="#282944"/>
<circle cx="54.2445" cy="99.3094" r="1" transform="rotate(-5.55676 54.2445 99.3094)" fill="#282944"/>
<circle cx="59.507" cy="33.7292" r="1" transform="rotate(59.7143 59.507 33.7292)" fill="#282944"/>
<circle cx="63.1322" cy="87.3926" r="1" transform="rotate(-5.55676 63.1322 87.3926)" fill="#282944"/>
<circle cx="70.4499" cy="36.6029" r="1" transform="rotate(59.7143 70.4499 36.6029)" fill="#282944"/>
<circle cx="70.3202" cy="78.6558" r="1" transform="rotate(-5.55676 70.3202 78.6558)" fill="#282944"/>
<circle cx="85.1296" cy="28.0297" r="1" transform="rotate(59.7143 85.1296 28.0297)" fill="#282944"/>
<circle cx="68.6737" cy="61.7356" r="1" transform="rotate(-5.55676 68.6737 61.7356)" fill="#282944"/>
<circle cx="81.0954" cy="21.1215" r="1" transform="rotate(59.7143 81.0954 21.1215)" fill="#282944"/>
<circle cx="60.7118" cy="62.5103" r="1" transform="rotate(-5.55676 60.7118 62.5103)" fill="#282944"/>
<circle cx="67.7214" cy="49.777" r="1" transform="rotate(59.7143 67.7214 49.777)" fill="#282944"/>
<circle cx="81.1444" cy="86.6451" r="1" transform="rotate(-5.55676 81.1444 86.6451)" fill="#282944"/>
<circle cx="58.0773" cy="53.0929" r="1" transform="rotate(59.7143 58.0773 53.0929)" fill="#282944"/>
<circle cx="80.1224" cy="96.7918" r="1" transform="rotate(-5.55676 80.1224 96.7918)" fill="#282944"/>
<circle cx="50.8102" cy="58.4953" r="1" transform="rotate(59.7143 50.8102 58.4953)" fill="#282944"/>
<circle cx="81.9891" cy="105.653" r="1" transform="rotate(-5.55676 81.9891 105.653)" fill="#282944"/>
<circle cx="39.363" cy="54.7582" r="1" transform="rotate(59.7143 39.363 54.7582)" fill="#282944"/>
<circle cx="73.806" cy="114.487" r="1" transform="rotate(-5.55676 73.806 114.487)" fill="#282944"/>
<circle cx="36.13" cy="67.0688" r="1" transform="rotate(59.7143 36.13 67.0688)" fill="#D586E2"/>
<circle cx="83.6351" cy="122.573" r="1" transform="rotate(-5.55676 83.6351 122.573)" fill="#D586E2"/>
<circle cx="42.5959" cy="42.4477" r="1" transform="rotate(59.7143 42.5959 42.4477)" fill="#BC8EF5"/>
<circle cx="63.9764" cy="106.4" r="1" transform="rotate(-5.55676 63.9764 106.4)" fill="#BC8EF5"/>
<circle cx="34.8239" cy="46.9865" r="1" transform="rotate(59.7143 34.8239 46.9865)" fill="#282944"/>
<circle cx="64.8485" cy="115.358" r="1" transform="rotate(-5.55676 64.8485 115.358)" fill="#282944"/>
<circle cx="27.0524" cy="51.5253" r="1" transform="rotate(59.7143 27.0524 51.5253)" fill="#282944"/>
<circle cx="65.7196" cy="124.316" r="1" transform="rotate(-5.55676 65.7196 124.316)" fill="#282944"/>
</svg>
