<svg width="87" height="130" viewBox="0 0 87 130" fill="none" xmlns="http://www.w3.org/2000/svg">
<circle cx="1.69206" cy="5.85001" r="1" transform="rotate(59.7143 1.69206 5.85001)" fill="#282944"/>
<circle cx="13.867" cy="128.088" r="1" transform="rotate(-5.55676 13.867 128.088)" fill="#282944"/>
<circle cx="5.72624" cy="12.7582" r="1" transform="rotate(59.7143 5.72624 12.7582)" fill="#282944"/>
<circle cx="21.8294" cy="127.313" r="1" transform="rotate(-5.55676 21.8294 127.313)" fill="#BC8EF5"/>
<circle cx="8.59977" cy="1.81559" r="1" transform="rotate(59.7143 8.59977 1.81559)" fill="#282944"/>
<circle cx="13.0926" cy="120.126" r="1" transform="rotate(-5.55676 13.0926 120.126)" fill="#BC8EF5"/>
<circle cx="20.9103" cy="5.0485" r="1" transform="rotate(59.7143 20.9103 5.0485)" fill="#282944"/>
<circle cx="21.179" cy="110.296" r="1" transform="rotate(-5.55676 21.179 110.296)" fill="#282944"/>
<circle cx="22.5758" cy="23.7629" r="1" transform="rotate(59.7143 22.5758 23.7629)" fill="#282944"/>
<circle cx="38.8739" cy="116.613" r="1" transform="rotate(-5.55676 38.8739 116.613)" fill="#282944"/>
<circle cx="34.0226" cy="27.4999" r="1" transform="rotate(59.7143 34.0226 27.4999)" fill="#282944"/>
<circle cx="47.0565" cy="107.779" r="1" transform="rotate(-5.55676 47.0565 107.779)" fill="#282944"/>
<circle cx="44.9655" cy="30.3737" r="1" transform="rotate(59.7143 44.9655 30.3737)" fill="#282944"/>
<circle cx="54.2445" cy="99.0415" r="1" transform="rotate(-5.55676 54.2445 99.0415)" fill="#282944"/>
<circle cx="59.507" cy="33.4613" r="1" transform="rotate(59.7143 59.507 33.4613)" fill="#282944"/>
<circle cx="63.1322" cy="87.125" r="1" transform="rotate(-5.55676 63.1322 87.125)" fill="#282944"/>
<circle cx="70.4499" cy="36.3351" r="1" transform="rotate(59.7143 70.4499 36.3351)" fill="#BC8EF5"/>
<circle cx="70.3202" cy="78.3877" r="1" transform="rotate(-5.55676 70.3202 78.3877)" fill="#282944"/>
<circle cx="85.1296" cy="27.7619" r="1" transform="rotate(59.7143 85.1296 27.7619)" fill="#282944"/>
<circle cx="68.6737" cy="61.4678" r="1" transform="rotate(-5.55676 68.6737 61.4678)" fill="#282944"/>
<circle cx="81.0954" cy="20.8537" r="1" transform="rotate(59.7143 81.0954 20.8537)" fill="#282944"/>
<circle cx="60.7118" cy="62.2422" r="1" transform="rotate(-5.55676 60.7118 62.2422)" fill="#282944"/>
<circle cx="67.7214" cy="49.5092" r="1" transform="rotate(59.7143 67.7214 49.5092)" fill="#BC8EF5"/>
<circle cx="81.1444" cy="86.3775" r="1" transform="rotate(-5.55676 81.1444 86.3775)" fill="#282944"/>
<circle cx="58.0773" cy="52.8254" r="1" transform="rotate(59.7143 58.0773 52.8254)" fill="#282944"/>
<circle cx="80.1224" cy="96.524" r="1" transform="rotate(-5.55676 80.1224 96.524)" fill="#282944"/>
<circle cx="50.8102" cy="58.2277" r="1" transform="rotate(59.7143 50.8102 58.2277)" fill="#282944"/>
<circle cx="81.9891" cy="105.385" r="1" transform="rotate(-5.55676 81.9891 105.385)" fill="#282944"/>
<circle cx="39.363" cy="54.4904" r="1" transform="rotate(59.7143 39.363 54.4904)" fill="#282944"/>
<circle cx="73.806" cy="114.219" r="1" transform="rotate(-5.55676 73.806 114.219)" fill="#282944"/>
<circle cx="36.13" cy="66.8009" r="1" transform="rotate(59.7143 36.13 66.8009)" fill="#282944"/>
<circle cx="83.6351" cy="122.305" r="1" transform="rotate(-5.55676 83.6351 122.305)" fill="#282944"/>
<circle cx="42.5959" cy="42.1798" r="1" transform="rotate(59.7143 42.5959 42.1798)" fill="#282944"/>
<circle cx="63.9764" cy="106.132" r="1" transform="rotate(-5.55676 63.9764 106.132)" fill="#BC8EF5"/>
<circle cx="34.8239" cy="46.7187" r="1" transform="rotate(59.7143 34.8239 46.7187)" fill="#282944"/>
<circle cx="64.8485" cy="115.09" r="1" transform="rotate(-5.55676 64.8485 115.09)" fill="#282944"/>
<circle cx="27.0524" cy="51.2575" r="1" transform="rotate(59.7143 27.0524 51.2575)" fill="#282944"/>
<circle cx="65.7196" cy="124.048" r="1" transform="rotate(-5.55676 65.7196 124.048)" fill="#282944"/>
</svg>
