<svg width="87" height="130" fill="none" xmlns="http://www.w3.org/2000/svg"><circle cx="1.692" cy="5.85" r="1" transform="rotate(59.714 1.692 5.85)" fill="#282944"/><circle cx="13.867" cy="128.088" r="1" transform="rotate(-5.557 13.867 128.088)" fill="#282944"/><circle cx="5.726" cy="12.758" r="1" transform="rotate(59.714 5.726 12.758)" fill="#282944"/><circle cx="21.829" cy="127.313" r="1" transform="rotate(-5.557 21.83 127.313)" fill="#BC8EF5"/><circle cx="8.6" cy="1.816" r="1" transform="rotate(59.714 8.6 1.816)" fill="#282944"/><circle cx="13.093" cy="120.126" r="1" transform="rotate(-5.557 13.093 120.126)" fill="#BC8EF5"/><circle cx="20.91" cy="5.048" r="1" transform="rotate(59.714 20.91 5.048)" fill="#282944"/><circle cx="21.179" cy="110.296" r="1" transform="rotate(-5.557 21.179 110.296)" fill="#282944"/><circle cx="22.576" cy="23.763" r="1" transform="rotate(59.714 22.576 23.763)" fill="#282944"/><circle cx="38.874" cy="116.613" r="1" transform="rotate(-5.557 38.874 116.613)" fill="#282944"/><circle cx="34.023" cy="27.5" r="1" transform="rotate(59.714 34.023 27.5)" fill="#282944"/><circle cx="47.056" cy="107.779" r="1" transform="rotate(-5.557 47.056 107.779)" fill="#282944"/><circle cx="44.965" cy="30.374" r="1" transform="rotate(59.714 44.965 30.374)" fill="#282944"/><circle cx="54.245" cy="99.041" r="1" transform="rotate(-5.557 54.245 99.041)" fill="#282944"/><circle cx="59.507" cy="33.461" r="1" transform="rotate(59.714 59.507 33.461)" fill="#282944"/><circle cx="63.132" cy="87.125" r="1" transform="rotate(-5.557 63.132 87.125)" fill="#282944"/><circle cx="70.45" cy="36.335" r="1" transform="rotate(59.714 70.45 36.335)" fill="#BC8EF5"/><circle cx="70.32" cy="78.388" r="1" transform="rotate(-5.557 70.32 78.388)" fill="#282944"/><circle cx="85.13" cy="27.762" r="1" transform="rotate(59.714 85.13 27.762)" fill="#282944"/><circle cx="68.674" cy="61.468" r="1" transform="rotate(-5.557 68.674 61.468)" fill="#282944"/><circle cx="81.095" cy="20.854" r="1" transform="rotate(59.714 81.095 20.854)" fill="#282944"/><circle cx="60.712" cy="62.242" r="1" transform="rotate(-5.557 60.712 62.242)" fill="#282944"/><circle cx="67.721" cy="49.509" r="1" transform="rotate(59.714 67.721 49.51)" fill="#BC8EF5"/><circle cx="81.144" cy="86.377" r="1" transform="rotate(-5.557 81.144 86.377)" fill="#282944"/><circle cx="58.077" cy="52.825" r="1" transform="rotate(59.714 58.077 52.825)" fill="#282944"/><circle cx="80.122" cy="96.524" r="1" transform="rotate(-5.557 80.122 96.524)" fill="#282944"/><circle cx="50.81" cy="58.228" r="1" transform="rotate(59.714 50.81 58.228)" fill="#282944"/><circle cx="81.989" cy="105.385" r="1" transform="rotate(-5.557 81.99 105.385)" fill="#282944"/><circle cx="39.363" cy="54.49" r="1" transform="rotate(59.714 39.363 54.49)" fill="#282944"/><circle cx="73.806" cy="114.219" r="1" transform="rotate(-5.557 73.806 114.219)" fill="#282944"/><circle cx="36.13" cy="66.801" r="1" transform="rotate(59.714 36.13 66.8)" fill="#282944"/><circle cx="83.635" cy="122.305" r="1" transform="rotate(-5.557 83.635 122.305)" fill="#282944"/><circle cx="42.596" cy="42.18" r="1" transform="rotate(59.714 42.596 42.18)" fill="#282944"/><circle cx="63.976" cy="106.132" r="1" transform="rotate(-5.557 63.976 106.132)" fill="#BC8EF5"/><circle cx="34.824" cy="46.719" r="1" transform="rotate(59.714 34.824 46.719)" fill="#282944"/><circle cx="64.849" cy="115.09" r="1" transform="rotate(-5.557 64.849 115.09)" fill="#282944"/><circle cx="27.052" cy="51.258" r="1" transform="rotate(59.714 27.052 51.258)" fill="#282944"/><circle cx="65.72" cy="124.048" r="1" transform="rotate(-5.557 65.72 124.048)" fill="#282944"/></svg>