<svg width="87" height="130" fill="none" xmlns="http://www.w3.org/2000/svg"><circle cx="1.692" cy="6.314" r="1" transform="rotate(59.714 1.692 6.314)" fill="#282944"/><circle cx="13.867" cy="128.552" r="1" transform="rotate(-5.557 13.867 128.552)" fill="#282944"/><circle cx="5.726" cy="13.223" r="1" transform="rotate(59.714 5.726 13.223)" fill="#282944"/><circle cx="21.829" cy="127.777" r="1" transform="rotate(-5.557 21.83 127.777)" fill="#282944"/><circle cx="8.6" cy="2.28" r="1" transform="rotate(59.714 8.6 2.28)" fill="#282944"/><circle cx="13.093" cy="120.59" r="1" transform="rotate(-5.557 13.093 120.59)" fill="#282944"/><circle cx="20.91" cy="5.513" r="1" transform="rotate(59.714 20.91 5.513)" fill="#282944"/><circle cx="21.179" cy="110.761" r="1" transform="rotate(-5.557 21.179 110.761)" fill="#282944"/><circle cx="22.576" cy="24.227" r="1" transform="rotate(59.714 22.576 24.227)" fill="#282944"/><circle cx="38.874" cy="117.077" r="1" transform="rotate(-5.557 38.874 117.077)" fill="#282944"/><circle cx="34.023" cy="27.964" r="1" transform="rotate(59.714 34.023 27.964)" fill="#282944"/><circle cx="47.056" cy="108.243" r="1" transform="rotate(-5.557 47.056 108.243)" fill="#282944"/><circle cx="44.965" cy="30.838" r="1" transform="rotate(59.714 44.965 30.838)" fill="#282944"/><circle cx="54.245" cy="99.506" r="1" transform="rotate(-5.557 54.245 99.506)" fill="#BC8EF5"/><circle cx="59.507" cy="33.926" r="1" transform="rotate(59.714 59.507 33.926)" fill="#282944"/><circle cx="63.132" cy="87.589" r="1" transform="rotate(-5.557 63.132 87.59)" fill="#BC8EF5"/><circle cx="70.45" cy="36.8" r="1" transform="rotate(59.714 70.45 36.8)" fill="#282944"/><circle cx="70.32" cy="78.852" r="1" transform="rotate(-5.557 70.32 78.852)" fill="#BC8EF5"/><circle cx="85.13" cy="28.226" r="1" transform="rotate(59.714 85.13 28.226)" fill="#282944"/><circle cx="68.674" cy="61.932" r="1" transform="rotate(-5.557 68.674 61.932)" fill="#BC8EF5"/><circle cx="81.095" cy="21.318" r="1" transform="rotate(59.714 81.095 21.318)" fill="#282944"/><circle cx="60.712" cy="62.707" r="1" transform="rotate(-5.557 60.712 62.707)" fill="#BC8EF5"/><circle cx="67.721" cy="49.974" r="1" transform="rotate(59.714 67.721 49.974)" fill="#BC8EF5"/><circle cx="81.144" cy="86.842" r="1" transform="rotate(-5.557 81.144 86.842)" fill="#282944"/><circle cx="58.077" cy="53.29" r="1" transform="rotate(59.714 58.077 53.29)" fill="#BC8EF5"/><circle cx="80.122" cy="96.988" r="1" transform="rotate(-5.557 80.122 96.988)" fill="#282944"/><circle cx="50.81" cy="58.692" r="1" transform="rotate(59.714 50.81 58.692)" fill="#BC8EF5"/><circle cx="81.989" cy="105.849" r="1" transform="rotate(-5.557 81.99 105.849)" fill="#282944"/><circle cx="39.363" cy="54.955" r="1" transform="rotate(59.714 39.363 54.955)" fill="#BC8EF5"/><circle cx="73.806" cy="114.683" r="1" transform="rotate(-5.557 73.806 114.683)" fill="#282944"/><circle cx="36.13" cy="67.265" r="1" transform="rotate(59.714 36.13 67.265)" fill="#282944"/><circle cx="83.635" cy="122.769" r="1" transform="rotate(-5.557 83.635 122.769)" fill="#282944"/><circle cx="42.596" cy="42.644" r="1" transform="rotate(59.714 42.596 42.644)" fill="#BC8EF5"/><circle cx="63.976" cy="106.597" r="1" transform="rotate(-5.557 63.976 106.597)" fill="#282944"/><circle cx="34.824" cy="47.183" r="1" transform="rotate(59.714 34.824 47.183)" fill="#282944"/><circle cx="64.849" cy="115.554" r="1" transform="rotate(-5.557 64.849 115.554)" fill="#282944"/><circle cx="27.052" cy="51.722" r="1" transform="rotate(59.714 27.052 51.722)" fill="#282944"/><circle cx="65.72" cy="124.512" r="1" transform="rotate(-5.557 65.72 124.512)" fill="#282944"/></svg>