<svg width="87" height="129" viewBox="0 0 87 129" fill="none" xmlns="http://www.w3.org/2000/svg">
<circle cx="1.69206" cy="5.58219" r="1" transform="rotate(59.7143 1.69206 5.58219)" fill="#BC8EF5"/>
<circle cx="13.867" cy="127.82" r="1" transform="rotate(-5.55676 13.867 127.82)" fill="#282944"/>
<circle cx="5.72624" cy="12.4904" r="1" transform="rotate(59.7143 5.72624 12.4904)" fill="#282944"/>
<circle cx="21.8294" cy="127.045" r="1" transform="rotate(-5.55676 21.8294 127.045)" fill="#282944"/>
<circle cx="8.59977" cy="1.54777" r="1" transform="rotate(59.7143 8.59977 1.54777)" fill="#BC8EF5"/>
<circle cx="13.0926" cy="119.858" r="1" transform="rotate(-5.55676 13.0926 119.858)" fill="#282944"/>
<circle cx="20.9103" cy="4.78067" r="1" transform="rotate(59.7143 20.9103 4.78067)" fill="#BC8EF5"/>
<circle cx="21.179" cy="110.028" r="1" transform="rotate(-5.55676 21.179 110.028)" fill="#282944"/>
<circle cx="22.5758" cy="23.495" r="1" transform="rotate(59.7143 22.5758 23.495)" fill="#282944"/>
<circle cx="38.8739" cy="116.345" r="1" transform="rotate(-5.55676 38.8739 116.345)" fill="#282944"/>
<circle cx="34.0226" cy="27.2321" r="1" transform="rotate(59.7143 34.0226 27.2321)" fill="#282944"/>
<circle cx="47.0565" cy="107.511" r="1" transform="rotate(-5.55676 47.0565 107.511)" fill="#282944"/>
<circle cx="44.9655" cy="30.1059" r="1" transform="rotate(59.7143 44.9655 30.1059)" fill="#282944"/>
<circle cx="54.2445" cy="98.7737" r="1" transform="rotate(-5.55676 54.2445 98.7737)" fill="#282944"/>
<circle cx="59.507" cy="33.1935" r="1" transform="rotate(59.7143 59.507 33.1935)" fill="#282944"/>
<circle cx="63.1322" cy="86.857" r="1" transform="rotate(-5.55676 63.1322 86.857)" fill="#282944"/>
<circle cx="70.4499" cy="36.0673" r="1" transform="rotate(59.7143 70.4499 36.0673)" fill="#282944"/>
<circle cx="70.3202" cy="78.1201" r="1" transform="rotate(-5.55676 70.3202 78.1201)" fill="#282944"/>
<circle cx="85.1296" cy="27.4941" r="1" transform="rotate(59.7143 85.1296 27.4941)" fill="#282944"/>
<circle cx="68.6737" cy="61.2" r="1" transform="rotate(-5.55676 68.6737 61.2)" fill="#282944"/>
<circle cx="81.0954" cy="20.5859" r="1" transform="rotate(59.7143 81.0954 20.5859)" fill="#282944"/>
<circle cx="60.7118" cy="61.9746" r="1" transform="rotate(-5.55676 60.7118 61.9746)" fill="#282944"/>
<circle cx="67.7214" cy="49.2414" r="1" transform="rotate(59.7143 67.7214 49.2414)" fill="#BC8EF5"/>
<circle cx="81.1444" cy="86.1094" r="1" transform="rotate(-5.55676 81.1444 86.1094)" fill="#BC8EF5"/>
<circle cx="58.0773" cy="52.5573" r="1" transform="rotate(59.7143 58.0773 52.5573)" fill="#282944"/>
<circle cx="80.1224" cy="96.2561" r="1" transform="rotate(-5.55676 80.1224 96.2561)" fill="#282944"/>
<circle cx="50.8102" cy="57.9596" r="1" transform="rotate(59.7143 50.8102 57.9596)" fill="#282944"/>
<circle cx="81.9891" cy="105.117" r="1" transform="rotate(-5.55676 81.9891 105.117)" fill="#282944"/>
<circle cx="39.363" cy="54.2226" r="1" transform="rotate(59.7143 39.363 54.2226)" fill="#282944"/>
<circle cx="73.806" cy="113.951" r="1" transform="rotate(-5.55676 73.806 113.951)" fill="#282944"/>
<circle cx="36.13" cy="66.5331" r="1" transform="rotate(59.7143 36.13 66.5331)" fill="#282944"/>
<circle cx="83.6351" cy="122.037" r="1" transform="rotate(-5.55676 83.6351 122.037)" fill="#282944"/>
<circle cx="42.5959" cy="41.912" r="1" transform="rotate(59.7143 42.5959 41.912)" fill="#282944"/>
<circle cx="63.9764" cy="105.865" r="1" transform="rotate(-5.55676 63.9764 105.865)" fill="#282944"/>
<circle cx="34.8239" cy="46.4508" r="1" transform="rotate(59.7143 34.8239 46.4508)" fill="#282944"/>
<circle cx="64.8485" cy="114.822" r="1" transform="rotate(-5.55676 64.8485 114.822)" fill="#282944"/>
<circle cx="27.0524" cy="50.9897" r="1" transform="rotate(59.7143 27.0524 50.9897)" fill="#282944"/>
<circle cx="65.7196" cy="123.78" r="1" transform="rotate(-5.55676 65.7196 123.78)" fill="#282944"/>
</svg>
