<svg width="87" height="130" viewBox="0 0 87 130" fill="none" xmlns="http://www.w3.org/2000/svg">
<circle cx="1.69206" cy="6.31437" r="1" transform="rotate(59.7143 1.69206 6.31437)" fill="#282944"/>
<circle cx="13.867" cy="128.552" r="1" transform="rotate(-5.55676 13.867 128.552)" fill="#282944"/>
<circle cx="5.72624" cy="13.2226" r="1" transform="rotate(59.7143 5.72624 13.2226)" fill="#282944"/>
<circle cx="21.8294" cy="127.777" r="1" transform="rotate(-5.55676 21.8294 127.777)" fill="#282944"/>
<circle cx="8.59977" cy="2.27994" r="1" transform="rotate(59.7143 8.59977 2.27994)" fill="#282944"/>
<circle cx="13.0926" cy="120.59" r="1" transform="rotate(-5.55676 13.0926 120.59)" fill="#282944"/>
<circle cx="20.9103" cy="5.51285" r="1" transform="rotate(59.7143 20.9103 5.51285)" fill="#282944"/>
<circle cx="21.179" cy="110.761" r="1" transform="rotate(-5.55676 21.179 110.761)" fill="#282944"/>
<circle cx="22.5758" cy="24.2272" r="1" transform="rotate(59.7143 22.5758 24.2272)" fill="#282944"/>
<circle cx="38.8739" cy="117.077" r="1" transform="rotate(-5.55676 38.8739 117.077)" fill="#282944"/>
<circle cx="34.0226" cy="27.9643" r="1" transform="rotate(59.7143 34.0226 27.9643)" fill="#282944"/>
<circle cx="47.0565" cy="108.243" r="1" transform="rotate(-5.55676 47.0565 108.243)" fill="#282944"/>
<circle cx="44.9655" cy="30.838" r="1" transform="rotate(59.7143 44.9655 30.838)" fill="#282944"/>
<circle cx="54.2445" cy="99.5059" r="1" transform="rotate(-5.55676 54.2445 99.5059)" fill="#BC8EF5"/>
<circle cx="59.507" cy="33.9257" r="1" transform="rotate(59.7143 59.507 33.9257)" fill="#282944"/>
<circle cx="63.1322" cy="87.5894" r="1" transform="rotate(-5.55676 63.1322 87.5894)" fill="#BC8EF5"/>
<circle cx="70.4499" cy="36.7995" r="1" transform="rotate(59.7143 70.4499 36.7995)" fill="#282944"/>
<circle cx="70.3202" cy="78.8521" r="1" transform="rotate(-5.55676 70.3202 78.8521)" fill="#BC8EF5"/>
<circle cx="85.1296" cy="28.2262" r="1" transform="rotate(59.7143 85.1296 28.2262)" fill="#282944"/>
<circle cx="68.6737" cy="61.9322" r="1" transform="rotate(-5.55676 68.6737 61.9322)" fill="#BC8EF5"/>
<circle cx="81.0954" cy="21.318" r="1" transform="rotate(59.7143 81.0954 21.318)" fill="#282944"/>
<circle cx="60.7118" cy="62.7066" r="1" transform="rotate(-5.55676 60.7118 62.7066)" fill="#BC8EF5"/>
<circle cx="67.7214" cy="49.9735" r="1" transform="rotate(59.7143 67.7214 49.9735)" fill="#BC8EF5"/>
<circle cx="81.1444" cy="86.8418" r="1" transform="rotate(-5.55676 81.1444 86.8418)" fill="#282944"/>
<circle cx="58.0773" cy="53.2897" r="1" transform="rotate(59.7143 58.0773 53.2897)" fill="#BC8EF5"/>
<circle cx="80.1224" cy="96.9883" r="1" transform="rotate(-5.55676 80.1224 96.9883)" fill="#282944"/>
<circle cx="50.8102" cy="58.6921" r="1" transform="rotate(59.7143 50.8102 58.6921)" fill="#BC8EF5"/>
<circle cx="81.9891" cy="105.849" r="1" transform="rotate(-5.55676 81.9891 105.849)" fill="#282944"/>
<circle cx="39.363" cy="54.9547" r="1" transform="rotate(59.7143 39.363 54.9547)" fill="#BC8EF5"/>
<circle cx="73.806" cy="114.683" r="1" transform="rotate(-5.55676 73.806 114.683)" fill="#282944"/>
<circle cx="36.13" cy="67.2653" r="1" transform="rotate(59.7143 36.13 67.2653)" fill="#282944"/>
<circle cx="83.6351" cy="122.769" r="1" transform="rotate(-5.55676 83.6351 122.769)" fill="#282944"/>
<circle cx="42.5959" cy="42.6442" r="1" transform="rotate(59.7143 42.5959 42.6442)" fill="#BC8EF5"/>
<circle cx="63.9764" cy="106.597" r="1" transform="rotate(-5.55676 63.9764 106.597)" fill="#282944"/>
<circle cx="34.8239" cy="47.183" r="1" transform="rotate(59.7143 34.8239 47.183)" fill="#282944"/>
<circle cx="64.8485" cy="115.554" r="1" transform="rotate(-5.55676 64.8485 115.554)" fill="#282944"/>
<circle cx="27.0524" cy="51.7218" r="1" transform="rotate(59.7143 27.0524 51.7218)" fill="#282944"/>
<circle cx="65.7196" cy="124.512" r="1" transform="rotate(-5.55676 65.7196 124.512)" fill="#282944"/>
</svg>
